<?xml version="1.0" encoding="UTF-8"?>
<svg id="Layer_1" xmlns="http://www.w3.org/2000/svg" version="1.1" viewBox="0 0 750 300">
  <!-- Generator: Adobe Illustrator 29.8.4, SVG Export Plug-In . SVG Version: 2.1.1 Build 6)  -->
  <defs>
    <style>
      .st0 {
        fill: #fff;
      }
    </style>
  </defs>
  <g>
    <path class="st0" d="M79.09,134.64c-6.49,0-12.82-1.28-19-3.85-6.09-2.65-9.94-6.09-11.62-10.34l10.66-6.49c3.61,4.81,11.86,7.86,20.28,7.86,5.69,0,10.26-.8,13.63-2.33,2.32-1.2,3.53-2.72,3.45-4.73,0-2-1.12-3.45-3.29-4.41-2-.8-6.41-1.6-13.31-2.48-9.3-.96-15.55-2.08-18.68-3.37-7.45-3.13-11.06-8.1-10.66-14.99,0-7.21,3.61-12.58,10.9-16.19,5.21-2.48,11.78-3.69,19.8-3.69,14.19,0,23.64,4.73,27.09,13.79l-11.7,6.17c-2.32-5.37-7.86-8.01-16.43-8.01-3.85,0-7.53.64-10.98,1.84-3.45,1.2-5.21,2.97-5.29,5.21-.08,4.17,2.97,5.61,10.26,6.81,1.6.24,3.69.48,6.17.72l5.29.56c6.17.72,10.66,1.68,13.47,2.81,7.45,3.05,11.06,8.09,10.66,15.23v.8c-.16,4.25-1.76,7.94-4.73,10.9-2.97,2.97-6.73,5.05-11.14,6.33-4.41,1.2-9.3,1.84-14.83,1.84h0Z"/>
    <path class="st0" d="M169.03,133.51v-49.94h-24.85v-12.9h63.24v12.9h-24.77v49.94h-13.63.01Z"/>
    <path class="st0" d="M257.85,122.69l-5.69,10.82h-15.07l33.66-65.65,34.79,65.65h-15.23l-5.93-10.82h-26.53ZM270.91,93.67l-8.82,18.68,17.79-.08-8.98-18.6h.01Z"/>
    <path class="st0" d="M347.15,124.69c-6.89-6.33-10.34-13.87-10.34-22.6s3.45-16.19,10.34-22.6c6.73-6.09,14.91-9.14,24.45-9.14,6.01,0,11.7,1.36,16.99,4.01,5.37,2.64,9.62,6.41,12.74,11.14l-10.98,7.85c-3.85-6.33-10.98-9.94-18.76-9.94-5.85,0-10.9,1.84-14.99,5.45s-6.17,8.01-6.17,13.23,2.08,9.54,6.17,13.22c4.17,3.61,9.14,5.45,14.99,5.45,7.77,0,14.99-3.77,18.92-10.18l11.06,7.61c-3.13,4.89-7.37,8.66-12.74,11.46s-11.06,4.17-17.23,4.17c-9.46,0-17.63-3.05-24.45-9.14h0Z"/>
    <path class="st0" d="M471.31,133.83c-9.54,0-17.79-3.05-24.61-9.22-6.81-6.17-10.18-13.63-10.18-22.52s3.45-16.35,10.26-22.52,14.99-9.22,24.53-9.22,17.71,3.13,24.53,9.3,10.26,13.63,10.26,22.44-3.45,16.35-10.26,22.52c-6.81,6.17-14.99,9.22-24.53,9.22h0ZM492.47,102.1c0-5.21-2.08-9.62-6.17-13.23-4.09-3.61-9.14-5.45-14.99-5.45s-10.9,1.84-14.99,5.45-6.17,8.01-6.17,13.23,2.08,9.54,6.17,13.22c4.17,3.61,9.14,5.45,14.99,5.45s10.82-1.84,14.91-5.45c4.17-3.69,6.25-8.09,6.25-13.22Z"/>
    <path class="st0" d="M544.18,133.51v-62.84h42.4c5.69,0,10.58,2,14.67,6.01,4.09,4.01,6.17,8.82,6.17,14.51s-2.08,10.5-6.17,14.51c-4.09,4.01-8.98,6.01-14.67,6.01h-28.77v21.8s-13.63,0-13.63,0ZM557.8,99.12h27.09c5.37,0,8.98-3.53,8.98-8.02s-3.53-8.1-8.98-8.1h-27.09v16.11h0Z"/>
    <path class="st0" d="M658.65,122.69l-5.69,10.82h-15.07l33.66-65.65,34.79,65.65h-15.23l-5.93-10.82h-26.53,0ZM671.71,93.67l-8.82,18.68,17.79-.08-8.98-18.6h.01Z"/>
  </g>
  <g>
    <path class="st0" d="M64.42,218.89l-5.69,10.82h-15.07l33.66-65.65,34.79,65.65h-15.23l-5.93-10.82h-26.53ZM77.49,189.87l-8.82,18.68,17.79-.08-8.98-18.6h.01Z"/>
    <path class="st0" d="M125.75,166.8h14.91l19.32,38.07,19.24-38.07h14.91l-34.15,65.16-34.23-65.16h0Z"/>
    <path class="st0" d="M228.51,218.89l-5.69,10.82h-15.07l33.66-65.65,34.79,65.65h-15.23l-5.93-10.82h-26.53ZM241.57,189.87l-8.82,18.68,17.79-.08-8.98-18.6h0Z"/>
    <path class="st0" d="M310.27,229.72h-13.63v-65l49.78,40.64v-38.47h13.55v65.25l-49.7-40.48v38.07h0Z"/>
    <path class="st0" d="M384.02,198.3c0-5.85,1.6-11.3,4.81-16.19s7.45-8.74,12.74-11.46c5.37-2.73,11.06-4.09,17.23-4.09,5.77,0,11.3,1.28,16.51,3.85,5.21,2.48,9.38,6.01,12.5,10.42l-11.06,7.53c-3.93-5.45-10.82-8.74-17.95-8.74-5.85,0-10.9,1.84-14.99,5.45s-6.17,8.01-6.17,13.23,2.08,9.54,6.17,13.22c4.17,3.61,9.14,5.45,14.99,5.45,7.37,0,13.23-2.72,17.55-8.18v-2.56h-19.8v-11.38h32.86v18.6c-7.13,10.9-18.03,16.59-30.62,16.59-9.54,0-17.71-3.05-24.53-9.22-6.81-6.17-10.26-13.63-10.26-22.52h.02Z"/>
    <path class="st0" d="M487.42,218.89l-5.69,10.82h-15.07l33.66-65.65,34.79,65.65h-15.23l-5.93-10.82h-26.53ZM500.49,189.87l-8.82,18.68,17.79-.08-8.98-18.6h.01Z"/>
    <path class="st0" d="M602.61,229.72l-19.16-21.8h-14.27v21.8h-13.63v-62.84h40.8c5.69,0,10.66,2,14.75,6.01s6.17,8.82,6.17,14.51c0,5.05-1.68,9.38-4.97,13.15-3.29,3.69-7.45,5.93-12.5,6.65l19.8,22.52h-16.99ZM569.19,195.33h25.73c5.37,0,8.74-3.61,8.74-8.18s-3.37-8.18-8.74-8.18h-25.73v16.35h0Z"/>
    <path class="st0" d="M674.44,229.72h-31.58v-62.84h31.58c8.74,0,16.27,3.05,22.44,9.22s9.3,13.55,9.3,22.2-3.13,16.03-9.3,22.2-13.71,9.22-22.44,9.22ZM656.48,179.78v37.03h17.95c5.05,0,9.3-1.84,12.82-5.45,3.61-3.61,5.37-8.02,5.37-13.06s-1.76-9.46-5.37-13.07c-3.53-3.61-7.77-5.45-12.82-5.45h-17.95Z"/>
  </g>
</svg>