<?xml version="1.0" encoding="UTF-8"?>
<svg id="Layer_1" xmlns="http://www.w3.org/2000/svg" version="1.1" viewBox="0 0 750 300">
  <!-- Generator: Adobe Illustrator 29.8.4, SVG Export Plug-In . SVG Version: 2.1.1 Build 6)  -->
  <defs>
    <style>
      .st0 {
        fill: #fff;
      }
    </style>
  </defs>
  <g>
    <path class="st0" d="M63.16,257.34h2.08c-.17,1.67-.62,3.1-1.36,4.29-.74,1.19-1.75,2.11-3.04,2.76-1.29.65-2.83.97-4.63.97-1.4,0-2.66-.26-3.8-.79s-2.11-1.28-2.92-2.26c-.81-.98-1.44-2.15-1.87-3.51-.44-1.36-.66-2.87-.66-4.52v-3.07c0-1.67.22-3.18.66-4.53.44-1.36,1.07-2.52,1.89-3.5s1.81-1.73,2.96-2.26c1.15-.53,2.44-.79,3.87-.79,1.76,0,3.27.32,4.53.95,1.27.64,2.27,1.55,3,2.74.74,1.19,1.19,2.63,1.36,4.32h-2.08c-.16-1.33-.51-2.45-1.05-3.38-.54-.92-1.28-1.63-2.23-2.12-.95-.49-2.13-.73-3.55-.73-1.14,0-2.16.22-3.06.66-.91.44-1.67,1.07-2.3,1.88-.63.82-1.11,1.79-1.44,2.93-.33,1.14-.5,2.4-.5,3.8v3.11c0,1.34.16,2.58.48,3.71.32,1.14.79,2.12,1.39,2.95.61.83,1.36,1.48,2.25,1.94.89.46,1.91.69,3.06.69,1.45,0,2.66-.23,3.63-.69.97-.46,1.72-1.16,2.26-2.08.54-.93.89-2.08,1.06-3.45Z"/>
    <path class="st0" d="M103.36,240.44l7.44,13.37,7.5-13.37h2.41l-8.88,15.31v9.27h-2.08v-9.27l-8.88-15.31h2.48Z"/>
    <path class="st0" d="M166.07,253.2h-6.94l-.03-1.77h5.98c1.2,0,2.23-.17,3.09-.52.86-.35,1.51-.87,1.95-1.55s.67-1.54.67-2.55-.22-1.89-.66-2.57c-.44-.68-1.1-1.18-1.98-1.51-.88-.33-1.98-.49-3.29-.49h-5.18v22.79h-2.08v-24.58h7.26c1.25,0,2.37.12,3.36.37.99.25,1.83.64,2.52,1.17s1.22,1.2,1.59,2c.37.8.55,1.76.55,2.88,0,1.01-.22,1.93-.67,2.74-.44.82-1.08,1.48-1.9,1.99s-1.8.83-2.94.95l-1.3.66ZM165.9,265.02h-7.43l1.06-1.79h6.36c1.22,0,2.25-.21,3.11-.62.86-.41,1.52-1,1.98-1.76s.69-1.68.69-2.74c0-.92-.2-1.76-.61-2.5-.41-.74-1.02-1.33-1.86-1.76-.83-.43-1.89-.65-3.16-.65h-4.32l.03-1.77h6.09l.37.64c1.11.11,2.08.45,2.9,1.01.82.56,1.46,1.28,1.92,2.15.46.87.69,1.82.69,2.85,0,1.5-.33,2.76-.99,3.79-.66,1.03-1.58,1.81-2.75,2.35-1.18.53-2.55.8-4.13.8Z"/>
    <path class="st0" d="M214.17,240.44v24.58h-2.08v-24.58h2.08ZM227.29,240.44v1.79h-13.74v-1.79h13.74ZM225.65,251.46v1.77h-12.1v-1.77h12.1ZM227.37,263.23v1.79h-13.83v-1.79h13.83Z"/>
    <path class="st0" d="M265.04,240.44h7.98c1.71,0,3.19.28,4.43.83,1.24.55,2.21,1.36,2.89,2.44s1.02,2.39,1.02,3.96c0,1.16-.24,2.21-.73,3.16-.48.95-1.16,1.74-2.02,2.37-.86.64-1.85,1.07-2.98,1.31l-.71.27h-8.52l-.03-1.77h7.12c1.28,0,2.35-.25,3.21-.75.86-.5,1.5-1.16,1.93-1.97.43-.81.65-1.68.65-2.62,0-1.11-.24-2.08-.72-2.9-.48-.82-1.18-1.44-2.12-1.88-.93-.44-2.08-.66-3.43-.66h-5.89v22.79h-2.09v-24.58ZM280.21,265.02l-6.36-10.99,2.23-.03,6.35,10.8v.22h-2.21Z"/>
    <path class="st0" d="M364.17,240.44v24.58h-2.08v-24.58h2.08ZM368.81,265.02h-5.55l.03-1.79h5.52c1.77,0,3.29-.39,4.57-1.18s2.26-1.89,2.96-3.3,1.05-3.05,1.05-4.9v-2.28c0-1.42-.2-2.7-.6-3.85-.4-1.15-.97-2.13-1.71-2.95-.74-.82-1.63-1.44-2.66-1.88-1.03-.44-2.18-.66-3.45-.66h-5.81v-1.79h5.81c1.53,0,2.94.26,4.22.79,1.28.52,2.39,1.28,3.33,2.26.94.98,1.66,2.16,2.18,3.54.51,1.37.77,2.9.77,4.59v2.23c0,1.69-.26,3.22-.77,4.59-.51,1.37-1.24,2.55-2.19,3.53-.94.98-2.07,1.73-3.37,2.26-1.3.53-2.74.79-4.33.79Z"/>
    <path class="st0" d="M420.12,240.44v24.58h-2.08v-24.58h2.08ZM433.24,240.44v1.79h-13.74v-1.79h13.74ZM431.6,251.46v1.77h-12.1v-1.77h12.1ZM433.32,263.23v1.79h-13.83v-1.79h13.83Z"/>
    <path class="st0" d="M473.11,240.44v24.58h-2.08v-24.58h2.08ZM486.26,240.44v1.79h-13.83v-1.79h13.83ZM484.56,251.73v1.81h-12.12v-1.81h12.12Z"/>
    <path class="st0" d="M525.89,240.44v24.58h-2.08v-24.58h2.08ZM539.01,240.44v1.79h-13.74v-1.79h13.74ZM537.37,251.46v1.77h-12.1v-1.77h12.1ZM539.09,263.23v1.79h-13.83v-1.79h13.83Z"/>
    <path class="st0" d="M595.11,240.44v24.58h-2.09l-14.11-21v21h-2.09v-24.58h2.09l14.15,20.98v-20.98h2.06Z"/>
    <path class="st0" d="M648.57,258.96c0-.67-.11-1.27-.34-1.8-.23-.52-.59-1-1.11-1.42s-1.2-.82-2.06-1.18c-.86-.37-1.93-.73-3.22-1.09-1.23-.35-2.34-.73-3.33-1.15s-1.84-.89-2.54-1.44c-.7-.54-1.24-1.17-1.61-1.9-.37-.73-.56-1.57-.56-2.54s.2-1.81.61-2.58c.4-.78.98-1.45,1.71-2.01s1.61-1,2.62-1.3c1.01-.3,2.11-.46,3.32-.46,1.72,0,3.21.33,4.47.98,1.26.65,2.23,1.53,2.92,2.64.69,1.11,1.03,2.35,1.03,3.72h-2.08c0-1.07-.25-2.02-.75-2.86-.5-.84-1.22-1.5-2.16-1.98-.94-.48-2.08-.72-3.44-.72s-2.48.21-3.4.62c-.92.41-1.61.96-2.07,1.64-.46.68-.69,1.44-.69,2.27,0,.59.11,1.12.34,1.61.22.49.59.94,1.1,1.37.51.42,1.18.81,2.03,1.17.85.36,1.89.71,3.13,1.05,1.31.35,2.46.74,3.47,1.18,1.01.44,1.86.95,2.56,1.52.7.57,1.23,1.24,1.59,1.99s.54,1.63.54,2.62-.21,1.9-.63,2.69-1,1.47-1.76,2.03c-.76.56-1.65.98-2.68,1.27-1.03.29-2.16.44-3.38.44-1.09,0-2.18-.14-3.26-.42-1.08-.28-2.07-.72-2.96-1.32-.9-.6-1.61-1.36-2.14-2.29s-.8-2.05-.8-3.35h2.08c0,1.04.21,1.91.63,2.63s.97,1.29,1.66,1.72c.69.43,1.46.75,2.3.94.84.2,1.67.3,2.51.3,1.29,0,2.42-.19,3.37-.57.95-.38,1.69-.92,2.21-1.61.52-.69.79-1.5.79-2.42Z"/>
    <path class="st0" d="M690.56,240.44v24.58h-2.08v-24.58h2.08ZM703.68,240.44v1.79h-13.74v-1.79h13.74ZM702.04,251.46v1.77h-12.1v-1.77h12.1ZM703.76,263.23v1.79h-13.83v-1.79h13.83Z"/>
  </g>
  <g>
    <path class="st0" d="M79.09,101.41c-6.49,0-12.82-1.28-19-3.85-6.09-2.65-9.94-6.09-11.62-10.34l10.66-6.49c3.61,4.81,11.86,7.86,20.28,7.86,5.69,0,10.26-.8,13.63-2.33,2.32-1.2,3.53-2.72,3.45-4.73,0-2-1.12-3.45-3.29-4.41-2-.8-6.41-1.6-13.31-2.48-9.3-.96-15.55-2.08-18.68-3.37-7.45-3.13-11.06-8.1-10.66-14.99,0-7.21,3.61-12.58,10.9-16.19,5.21-2.48,11.78-3.69,19.8-3.69,14.19,0,23.64,4.73,27.09,13.79l-11.7,6.17c-2.32-5.37-7.86-8.01-16.43-8.01-3.85,0-7.53.64-10.98,1.84-3.45,1.2-5.21,2.97-5.29,5.21-.08,4.17,2.97,5.61,10.26,6.81,1.6.24,3.69.48,6.17.72l5.29.56c6.17.72,10.66,1.68,13.47,2.81,7.45,3.05,11.06,8.09,10.66,15.23v.8c-.16,4.25-1.76,7.94-4.73,10.9-2.97,2.97-6.73,5.05-11.14,6.33-4.41,1.2-9.3,1.84-14.83,1.84Z"/>
    <path class="st0" d="M169.03,100.29v-49.94h-24.85v-12.9h63.24v12.9h-24.77v49.94h-13.63Z"/>
    <path class="st0" d="M257.85,89.47l-5.69,10.82h-15.07l33.66-65.65,34.79,65.65h-15.23l-5.93-10.82h-26.53ZM270.91,60.45l-8.82,18.68,17.79-.08-8.98-18.6Z"/>
    <path class="st0" d="M347.15,91.47c-6.89-6.33-10.34-13.87-10.34-22.6s3.45-16.19,10.34-22.6c6.73-6.09,14.91-9.14,24.45-9.14,6.01,0,11.7,1.36,16.99,4.01,5.37,2.64,9.62,6.41,12.74,11.14l-10.98,7.85c-3.85-6.33-10.98-9.94-18.76-9.94-5.85,0-10.9,1.84-14.99,5.45-4.09,3.61-6.17,8.01-6.17,13.23s2.08,9.54,6.17,13.22c4.17,3.61,9.14,5.45,14.99,5.45,7.77,0,14.99-3.77,18.92-10.18l11.06,7.61c-3.13,4.89-7.37,8.66-12.74,11.46s-11.06,4.17-17.23,4.17c-9.46,0-17.63-3.05-24.45-9.14Z"/>
    <path class="st0" d="M471.31,100.61c-9.54,0-17.79-3.05-24.61-9.22-6.81-6.17-10.18-13.63-10.18-22.52s3.45-16.35,10.26-22.52c6.81-6.17,14.99-9.22,24.53-9.22s17.71,3.13,24.53,9.3,10.26,13.63,10.26,22.44-3.45,16.35-10.26,22.52c-6.81,6.17-14.99,9.22-24.53,9.22ZM492.47,68.87c0-5.21-2.08-9.62-6.17-13.23-4.09-3.61-9.14-5.45-14.99-5.45s-10.9,1.84-14.99,5.45c-4.09,3.61-6.17,8.01-6.17,13.23s2.08,9.54,6.17,13.22c4.17,3.61,9.14,5.45,14.99,5.45s10.82-1.84,14.91-5.45c4.17-3.69,6.25-8.09,6.25-13.22Z"/>
    <path class="st0" d="M544.18,100.29v-62.84h42.4c5.69,0,10.58,2,14.67,6.01,4.09,4.01,6.17,8.82,6.17,14.51s-2.08,10.5-6.17,14.51c-4.09,4.01-8.98,6.01-14.67,6.01h-28.77v21.8h-13.63ZM557.8,65.9h27.09c5.37,0,8.98-3.53,8.98-8.02s-3.53-8.1-8.98-8.1h-27.09v16.11Z"/>
    <path class="st0" d="M658.65,89.47l-5.69,10.82h-15.07l33.66-65.65,34.79,65.65h-15.23l-5.93-10.82h-26.53ZM671.71,60.45l-8.82,18.68,17.79-.08-8.98-18.6Z"/>
  </g>
  <g>
    <path class="st0" d="M64.42,185.67l-5.69,10.82h-15.07l33.66-65.65,34.79,65.65h-15.23l-5.93-10.82h-26.53ZM77.49,156.65l-8.82,18.68,17.79-.08-8.98-18.6Z"/>
    <path class="st0" d="M125.75,133.57h14.91l19.32,38.07,19.24-38.07h14.91l-34.15,65.16-34.23-65.16Z"/>
    <path class="st0" d="M228.51,185.67l-5.69,10.82h-15.07l33.66-65.65,34.79,65.65h-15.23l-5.93-10.82h-26.53ZM241.57,156.65l-8.82,18.68,17.79-.08-8.98-18.6Z"/>
    <path class="st0" d="M310.27,196.49h-13.63v-65l49.78,40.64v-38.47h13.55v65.25l-49.7-40.48v38.07Z"/>
    <path class="st0" d="M384.02,165.07c0-5.85,1.6-11.3,4.81-16.19,3.21-4.89,7.45-8.74,12.74-11.46,5.37-2.73,11.06-4.09,17.23-4.09,5.77,0,11.3,1.28,16.51,3.85,5.21,2.48,9.38,6.01,12.5,10.42l-11.06,7.53c-3.93-5.45-10.82-8.74-17.95-8.74-5.85,0-10.9,1.84-14.99,5.45-4.09,3.61-6.17,8.01-6.17,13.23s2.08,9.54,6.17,13.22c4.17,3.61,9.14,5.45,14.99,5.45,7.37,0,13.23-2.72,17.55-8.18v-2.56h-19.8v-11.38h32.86v18.6c-7.13,10.9-18.03,16.59-30.62,16.59-9.54,0-17.71-3.05-24.53-9.22-6.81-6.17-10.26-13.63-10.26-22.52Z"/>
    <path class="st0" d="M487.42,185.67l-5.69,10.82h-15.07l33.66-65.65,34.79,65.65h-15.23l-5.93-10.82h-26.53ZM500.49,156.65l-8.82,18.68,17.79-.08-8.98-18.6Z"/>
    <path class="st0" d="M602.61,196.49l-19.16-21.8h-14.27v21.8h-13.63v-62.84h40.8c5.69,0,10.66,2,14.75,6.01,4.09,4.01,6.17,8.82,6.17,14.51,0,5.05-1.68,9.38-4.97,13.15-3.29,3.69-7.45,5.93-12.5,6.65l19.8,22.52h-16.99ZM569.19,162.1h25.73c5.37,0,8.74-3.61,8.74-8.18s-3.37-8.18-8.74-8.18h-25.73v16.35Z"/>
    <path class="st0" d="M674.44,196.49h-31.58v-62.84h31.58c8.74,0,16.27,3.05,22.44,9.22,6.17,6.17,9.3,13.55,9.3,22.2s-3.13,16.03-9.3,22.2c-6.17,6.17-13.71,9.22-22.44,9.22ZM656.48,146.55v37.03h17.95c5.05,0,9.3-1.84,12.82-5.45,3.61-3.61,5.37-8.02,5.37-13.06s-1.76-9.46-5.37-13.07c-3.53-3.61-7.77-5.45-12.82-5.45h-17.95Z"/>
  </g>
</svg>